<svg width="252" height="217" viewBox="0 0 252 217" fill="none" xmlns="http://www.w3.org/2000/svg">
<path d="M73.8 0.391998C86.396 0.659332 98.9933 0.778667 111.592 0.75C117.042 0.744 126.394 1.105 131.474 0.0559998C130.62 3.541 130.136 7.113 129.481 10.639L126.411 26.379C125.86 29.261 125.502 32.339 124.703 35.154L124.837 35.407C123.035 35.527 120.941 35.23 119.112 35.186C115.116 35.112 111.12 35.0837 107.124 35.101C93.826 35.091 80.528 35.356 67.236 35.134C67.609 29.95 68.949 24.703 69.959 19.608C71.228 13.207 72.369 6.757 73.8 0.391998Z" fill="#8A82B9"/>
<path d="M126.9 181.415C139.763 181.201 152.627 181.177 165.491 181.342C171.408 181.372 177.337 181.252 183.25 181.466C182.779 192.784 179.601 205.01 177.147 216.1C170.499 215.876 163.798 216.033 157.145 216.03L119.536 216.049C121.408 205.989 123.254 190.562 126.9 181.415Z" fill="#8A82B9"/>
<path d="M-0.00402832 181.407C0.326972 178.143 1.15798 174.913 1.82198 171.703L4.69197 157.457L8.59196 137.912C9.22896 134.604 9.66197 131.225 10.44 127.95C10.779 126.521 11.2 125.151 11.891 123.852C15.505 122.73 43.85 123.515 49.771 123.885L49.894 124.053C53.605 129.232 57.987 134.104 61.999 139.067C70.173 149.165 78.2556 159.336 86.247 169.579C88.471 172.474 93.174 177.68 94.596 180.724C94.848 182.236 95.21 183.861 95.152 185.393C95.016 188.935 94.023 192.374 93.357 195.841C92.043 202.681 90.937 209.56 88.938 216.245C85.667 215.892 82.254 216.064 78.962 216.063L62.524 216.061L43.655 216.052C39.754 216.051 35.758 215.882 31.875 216.25C33.63 204.721 35.921 193.108 38.337 181.693C31.524 180.845 24.424 181.238 17.557 181.238C11.76 181.239 5.76097 180.94 -0.00402832 181.407Z" fill="#4E4A6C"/>
<path d="M162.028 0.367996C174.311 0.778996 186.685 0.463999 198.983 0.459999C204.813 0.457999 213.586 0.992997 219.158 0.240997C217.213 11.9697 215.019 23.6517 212.577 35.287C225.366 34.886 238.213 35.302 251.014 35.097L250.919 35.414C249.633 39.802 249.149 44.702 248.325 49.212C246.806 57.513 244.884 65.727 243.237 74.002C242.167 79.378 241.509 85.156 239.889 90.37C239.655 91.122 239.428 92.095 238.667 92.467C236.235 93.658 214.358 93.145 210.275 92.932C207.518 92.788 203.81 91.891 201.15 92.359L200.903 92.196C196.835 86.819 192.35 81.643 188.126 76.376C177.167 62.872 166.379 49.2333 155.762 35.46C151.191 35.395 146.545 35.537 141.993 35.142C146.524 34.946 151.094 35.125 155.629 35.184C155.608 27.556 159.601 7.745 162.028 0.367996Z" fill="#4E4A6C"/>
<path d="M195.094 123.528C203.835 123.165 212.662 123.422 221.416 123.402C225.354 123.393 229.638 123.641 233.533 123.069C229.864 142.543 226.025 161.984 222.016 181.391L196.152 181.406C191.946 181.404 187.421 181.07 183.25 181.466C177.337 181.252 171.408 181.372 165.491 181.342C152.627 181.177 139.763 181.201 126.9 181.415C125.252 181.152 123.25 181.362 121.561 181.367C117.038 181.381 97.199 182.226 94.596 180.724C93.174 177.68 88.471 172.474 86.247 169.579C78.2556 159.336 70.173 149.165 61.999 139.067C57.987 134.104 53.605 129.232 49.894 124.053C52.54 123.193 64.589 123.643 68.109 123.644C81.097 123.647 94.109 123.831 107.094 123.557C111.696 123.249 116.358 123.391 120.97 123.399C126.524 123.408 132.096 123.332 137.647 123.499C148.778 124.103 160.106 123.843 171.259 123.826C178.831 123.814 187.637 124.156 195.094 123.528Z" fill="#FAD952"/>
<path d="M67.236 35.134C80.528 35.356 93.826 35.091 107.124 35.101C111.12 35.0837 115.116 35.112 119.112 35.186C120.941 35.23 123.035 35.527 124.837 35.407C130.537 35.01 136.282 35.12 141.993 35.142C146.545 35.537 151.191 35.395 155.762 35.46C166.379 49.2333 177.167 62.872 188.126 76.376C192.35 81.643 196.835 86.819 200.903 92.196L201.15 92.359C200.8 98.462 199.044 104.852 197.86 110.852C197.052 114.949 196.65 119.656 195.094 123.528C187.637 124.156 178.831 123.814 171.259 123.826C160.106 123.843 148.778 124.103 137.647 123.499C132.096 123.332 126.524 123.408 120.97 123.399C116.358 123.391 111.696 123.249 107.094 123.557C94.109 123.831 81.097 123.647 68.109 123.644C64.589 123.643 52.54 123.193 49.894 124.053L49.771 123.885C50.504 118.102 52.015 112.306 53.169 106.582C54.071 102.109 54.678 97.475 55.774 93.058C50.926 93.211 46.027 93.063 41.173 93.071C33.1477 93.1237 25.1223 93.1137 17.097 93.041C19.376 85.588 20.499 77.551 21.972 69.894L28.69 35.291C34.723 34.729 41.019 35.308 47.074 35.38C53.77 35.46 60.53 35.171 67.236 35.134ZM55.774 93.058C54.678 97.475 54.071 102.109 53.169 106.582C52.015 112.306 50.504 118.102 49.771 123.885L49.894 124.053C52.54 123.193 64.589 123.643 68.109 123.644C81.097 123.647 94.109 123.831 107.094 123.557C111.696 123.249 116.358 123.391 120.97 123.399C126.524 123.408 132.096 123.332 137.647 123.499C138.207 122.498 138.717 116.834 139.037 115.265C140.5 108.072 142.913 100.433 143.308 93.13C133.365 92.914 123.281 93.55 113.369 92.781C107.142 92.434 101.008 93 94.789 93.041L55.774 93.058Z" fill="#FE9EB0"/>
<path d="M200.903 92.196L201.15 92.359C200.8 98.462 199.044 104.852 197.86 110.852C197.052 114.949 196.65 119.656 195.094 123.528C187.637 124.156 178.831 123.814 171.259 123.826C160.106 123.843 148.778 124.103 137.647 123.499C138.207 122.498 138.717 116.834 139.037 115.265C140.5 108.072 142.913 100.433 143.308 93.13C149.121 92.084 155.938 92.925 161.844 93.008C171.188 93.14 180.544 93.063 189.888 93.05C192.7 93.047 197.739 93.514 200.321 92.735C200.642 92.638 200.739 92.463 200.903 92.196Z" fill="#8A82B9"/>
<path d="M55.774 93.058L94.789 93.041C101.008 93 107.142 92.434 113.369 92.781C123.281 93.55 133.365 92.914 143.308 93.13C142.913 100.433 140.5 108.072 139.037 115.265C138.717 116.834 138.207 122.498 137.647 123.499C132.096 123.332 126.524 123.408 120.97 123.399C116.358 123.391 111.696 123.249 107.094 123.557C94.109 123.831 81.097 123.647 68.109 123.644C64.589 123.643 52.54 123.193 49.894 124.053L49.771 123.885C50.504 118.102 52.015 112.306 53.169 106.582C54.071 102.109 54.678 97.475 55.774 93.058ZM113.369 92.781C111.706 99.28 110.695 106.029 109.506 112.634C108.878 116.12 108.53 120.309 107.094 123.557C111.696 123.249 116.358 123.391 120.97 123.399C126.524 123.408 132.096 123.332 137.647 123.499C138.207 122.498 138.717 116.834 139.037 115.265C140.5 108.072 142.913 100.433 143.308 93.13C133.365 92.914 123.281 93.55 113.369 92.781Z" fill="#8A82B9"/>
</svg>
